<svg width="150" height="13" viewBox="0 0 150 13" fill="none" xmlns="http://www.w3.org/2000/svg">
<path fill-rule="evenodd" clip-rule="evenodd" d="M147.833 2.13727H147.56V1.30192C147.632 1.29293 147.714 1.28244 147.833 1.28244C148.245 1.28244 148.397 1.49259 148.397 1.71173C148.397 2.02096 148.137 2.13727 147.833 2.13727ZM148.331 2.29441V2.26988C148.576 2.19608 148.784 1.99792 148.784 1.67427C148.784 1.43677 148.707 1.27345 148.573 1.16032C148.435 1.05056 148.203 0.973768 147.851 0.973768C147.578 0.973768 147.392 1.00355 147.194 1.02996V3.50137H147.56V2.44201H147.822C148.11 2.44201 148.268 2.55851 148.324 2.8713C148.369 3.19907 148.421 3.42458 148.478 3.50137H148.862C148.829 3.42458 148.771 3.27886 148.718 2.89059C148.674 2.52835 148.533 2.33187 148.331 2.29441ZM147.959 4.08912C147.04 4.08912 146.292 3.26294 146.292 2.21556C146.292 1.18411 147.04 0.34744 147.959 0.34744C148.884 0.34744 149.622 1.18411 149.622 2.22305C149.622 3.26294 148.884 4.10017 147.959 4.08912ZM147.959 0C146.82 0 145.898 0.98407 145.898 2.21556C145.898 3.46503 146.82 4.43805 147.959 4.43805C149.099 4.43805 150 3.46503 150 2.21556C150 0.98407 149.099 0 147.959 0ZM112.528 3.62218L114.496 0.61584H60.9464L58.9938 3.60719H58.9946L112.52 3.62218H112.528ZM42.7685 3.60719H42.7825L55.6416 3.62218H55.6469L57.5946 0.61584H44.7014L42.7685 3.60719ZM39.4107 3.62218L41.3572 0.61584H28.4804L26.5462 3.60719L39.4056 3.62218H39.4107ZM91.1369 5.01231L86.0625 12.8836H98.9406L102.578 7.38745L96.1544 5.01231H91.1369ZM66.5186 5.01231L61.6707 12.5395L61.4467 12.8836H74.3204L77.9617 7.38745L71.5384 5.01231H66.5186ZM5.09423 5.01231L0 12.8836H12.8781L16.7205 6.94936L20.5527 12.8691L20.5397 12.8836H33.4111L38.5118 5.01231H5.09423ZM145.102 3.52778C145.092 3.48208 145.069 3.44462 145.055 3.40304L145.015 3.27343H145.005C144.074 0.964029 139.535 0.61584 130.287 0.61584C121.801 0.61584 116.498 1.77148 114.599 3.60719H145.121C145.112 3.58079 145.111 3.55175 145.102 3.52778ZM132.626 5.92895L131.509 7.87293C130.766 9.16679 128.56 10.1383 126.583 10.0415C124.632 9.92966 123.647 8.82104 124.384 7.53467L125.504 5.59013C125.62 5.38654 125.778 5.19905 125.958 5.01831H125.909C125.911 5.01437 125.914 5.01231 125.914 5.01231H113.405C113.327 5.11664 113.25 5.22377 113.175 5.33316C113.115 5.41107 113.061 5.49386 113.006 5.57721C112.987 5.60362 112.968 5.63265 112.951 5.65793C112.895 5.74428 112.84 5.83006 112.786 5.91603C112.768 5.94188 112.754 5.96735 112.739 5.99339C112.685 6.08254 112.634 6.16795 112.581 6.25729C112.566 6.28314 112.55 6.30824 112.538 6.33258C112.487 6.42342 112.438 6.50883 112.392 6.60304C112.377 6.62702 112.365 6.65249 112.352 6.67647C112.305 6.76787 112.261 6.85796 112.218 6.95236C112.209 6.9754 112.198 6.99525 112.187 7.01979C112.144 7.11306 112.101 7.20671 112.064 7.29811C112.055 7.31871 112.047 7.34269 112.04 7.36348C112 7.45675 111.965 7.55321 111.931 7.65248C111.923 7.6684 111.917 7.68339 111.912 7.7023C111.878 7.80063 111.848 7.90234 111.82 8.00011C111.818 8.01172 111.813 8.02221 111.812 8.03064C111.599 8.81655 111.581 9.58747 111.87 10.2765C111.874 10.2859 111.876 10.2945 111.879 10.3041C111.932 10.4253 111.99 10.5449 112.062 10.6588C113.331 12.7075 122.098 12.9032 126.034 12.9032C129.97 12.9032 139.487 12.1969 141.754 10.347C143.571 8.85794 145.072 7.00368 145.236 5.01831C145.236 5.01831 145.236 5.02823 145.234 5.03329C145.236 5.02524 145.237 5.01831 145.237 5.01437V5.01231H132.868C132.887 5.29813 132.812 5.60905 132.626 5.92895ZM22.4175 0.61584H7.94153L6.00663 3.60719H24.6216L22.4175 0.61584ZM36.7601 12.8836H49.6303L49.649 12.8562L54.7308 5.01231H41.8564L36.7601 12.8836Z" fill="black"/>
</svg>
