<svg width="28" height="11" viewBox="0 0 28 11" fill="none" xmlns="http://www.w3.org/2000/svg">
<path d="M27.2641 4.40042C25.6948 3.29962 23.4759 3.0687 21.8908 3.0687H21.5435L16.0196 0.490906C15.3315 0.169617 14.5663 0 13.8071 0H8.93094C8.45712 0 7.99612 0.094635 7.56055 0.281128L2.49832 2.45068C2.2204 2.56989 1.92624 2.63034 1.62375 2.63034H1.28687C0.577423 2.63013 0 3.20755 0 3.91721V6.70157C0 7.31616 0.437927 7.84744 1.0412 7.96472L2.66431 8.28046C2.8649 9.51733 3.93985 10.4648 5.23227 10.4648C6.19913 10.4648 7.04379 9.93433 7.4924 9.14948H21.3843C21.8329 9.93433 22.6776 10.4648 23.6444 10.4648C24.6111 10.4648 25.456 9.93433 25.9046 9.14948H26.7131C27.4226 9.14948 28 8.57227 28 7.86261V5.81503C28 5.25256 27.7249 4.72363 27.2641 4.40042ZM15.6727 1.23431L19.6038 3.0687H13.7503L11.823 0.820312H13.8069C14.4473 0.820312 15.0925 0.96344 15.6727 1.23431ZM10.7427 0.820312L12.67 3.0687H11.9746C11.7102 3.0687 11.4596 2.95355 11.2874 2.75253L9.6312 0.820312H10.7427ZM7.79169 8.32916C7.81924 8.1777 7.83441 8.02197 7.83441 7.86261C7.83441 7.68787 7.81689 7.51291 7.78229 7.34265C7.73721 7.1207 7.52081 6.97736 7.29886 7.02222C7.07669 7.06729 6.93335 7.28391 6.97842 7.50586C7.00214 7.62228 7.0141 7.74234 7.0141 7.86261C7.0141 8.84506 6.21472 9.64423 5.23227 9.64423C4.24982 9.64423 3.45065 8.84506 3.45065 7.86261C3.45065 6.88016 4.24982 6.08078 5.23227 6.08078C5.48114 6.08078 5.72147 6.13098 5.94705 6.22989C6.15427 6.32068 6.3963 6.22626 6.4873 6.01883C6.57831 5.8114 6.48389 5.56958 6.27646 5.47858C5.94641 5.33395 5.595 5.26047 5.23227 5.26047C3.93985 5.26047 2.8649 6.20789 2.66431 7.44476L1.19778 7.15958C0.979034 7.11707 0.820099 6.92438 0.820099 6.70157V5.20407H1.28687C1.51331 5.20407 1.69702 5.02036 1.69702 4.79391C1.69702 4.56747 1.51331 4.38376 1.28687 4.38376H0.820312V3.91721C0.820312 3.65979 1.02966 3.45065 1.28687 3.45065H1.62375C2.03796 3.45065 2.44086 3.36777 2.82153 3.20477L7.88354 1.03522C8.1055 0.940155 8.336 0.877136 8.57205 0.845093L10.6647 3.28638C10.9928 3.6694 11.4703 3.88901 11.9746 3.88901H21.8908C22.9869 3.88901 24.9426 4.0174 26.3916 4.82211H26.2748C26.0481 4.82211 25.8646 5.00583 25.8646 5.23227C25.8646 5.45892 26.0481 5.64243 26.2748 5.64243H27.1628C27.1737 5.69882 27.1797 5.7565 27.1797 5.81503V6.57574H25.9046C25.456 5.79089 24.6113 5.26068 23.6444 5.26068C22.6776 5.26068 21.8329 5.79089 21.3843 6.57574H20.576C20.3493 6.57574 20.1658 6.75925 20.1658 6.9859C20.1658 7.21234 20.3493 7.39606 20.576 7.39606H21.085C21.0575 7.54752 21.0423 7.70325 21.0423 7.86261C21.0423 8.02197 21.0575 8.1777 21.085 8.32916H7.79169ZM23.6444 9.64423C22.662 9.64423 21.8626 8.84506 21.8626 7.86261C21.8626 6.88016 22.662 6.08078 23.6444 6.08078C24.6269 6.08078 25.4263 6.88016 25.4263 7.86261C25.4263 8.84506 24.6269 9.64423 23.6444 9.64423ZM26.7131 8.32916H26.2039C26.2314 8.1777 26.2466 8.02197 26.2466 7.86261C26.2466 7.70325 26.2314 7.54752 26.2039 7.39606H27.1797V7.86261C27.1797 8.11981 26.9703 8.32916 26.7131 8.32916Z" fill="white"/>
<path d="M18.8224 6.57565H13.3284L12.3994 5.33685C12.1575 5.0145 11.7726 4.82202 11.3697 4.82202H9.61629C9.46077 4.82202 9.31892 4.90982 9.24949 5.04889C9.17985 5.18774 9.19481 5.35416 9.28816 5.47827L10.3403 6.88113C10.5819 7.20349 10.9668 7.39597 11.3697 7.39597H18.8224C19.0488 7.39597 19.2325 7.21225 19.2325 6.98581C19.2325 6.75916 19.0488 6.57565 18.8224 6.57565ZM11.3697 6.57565C11.2236 6.57565 11.0841 6.5058 10.9965 6.38895L10.4366 5.64233H11.3697C11.5158 5.64233 11.6553 5.71219 11.7431 5.82904L12.303 6.57565H11.3697Z" fill="white"/>
<path d="M5.2323 7.01416C4.76447 7.01416 4.38379 7.39484 4.38379 7.86267C4.38379 8.33051 4.76447 8.71118 5.2323 8.71118C5.70035 8.71118 6.08081 8.33051 6.08081 7.86267C6.08081 7.39484 5.70035 7.01416 5.2323 7.01416Z" fill="white"/>
<path d="M23.6444 7.01416C23.1766 7.01416 22.7959 7.39484 22.7959 7.86267C22.7959 8.33051 23.1766 8.71118 23.6444 8.71118C24.1122 8.71118 24.4929 8.33051 24.4929 7.86267C24.4929 7.39484 24.1122 7.01416 23.6444 7.01416Z" fill="white"/>
</svg>
