<svg width="28" height="14" viewBox="0 0 28 14" fill="none" xmlns="http://www.w3.org/2000/svg">
<path d="M0.466557 1.40005H2.33316C2.59084 1.40005 2.79972 1.60912 2.79972 1.86679V2.46741L3.40375 1.10838C3.70415 0.434845 4.37218 0.000759848 5.1099 2.93927e-07H16.9096C17.588 -0.000379459 18.2135 0.367245 18.543 0.960456L20.3522 4.21685L26.2519 4.58543C27.2342 4.64942 27.9987 5.46404 28 6.44842V9.80014C28 10.0578 27.7911 10.2667 27.5333 10.2667H26.5627C26.3066 12.0503 24.653 13.2884 22.8696 13.0322C21.4359 12.8264 20.3099 11.7002 20.1041 10.2667H10.2293C9.97313 12.0503 8.31958 13.2884 6.53615 13.0322C5.10268 12.8264 3.97645 11.7002 3.77061 10.2667H2.33316C2.07548 10.2667 1.8666 10.0578 1.8666 9.80014V7.93335H0.466557C0.208878 7.93335 0 7.72447 0 7.46679V1.86679C-0.000188828 1.60893 0.208689 1.40005 0.466557 1.40005ZM23.3333 12.1335C24.6221 12.1335 25.6667 11.0887 25.6667 9.80014C25.6667 8.51137 24.6221 7.46679 23.3333 7.46679C22.0447 7.46679 21 8.51137 21 9.80014C21.0015 11.0882 22.0453 12.132 23.3333 12.1335ZM21 7.51768L21.0038 7.51389C21.0322 7.48502 21.062 7.45787 21.0919 7.43033C21.1353 7.38932 21.1786 7.3483 21.2244 7.30957C21.2567 7.28203 21.2903 7.2564 21.3239 7.23019C21.3704 7.1943 21.4171 7.15917 21.4639 7.12556C21.4994 7.10088 21.5352 7.07904 21.5721 7.05379C21.6188 7.02245 21.6697 6.99226 21.72 6.96378C21.7578 6.94175 21.7962 6.92124 21.8349 6.90074C21.8867 6.87415 21.939 6.8489 21.9921 6.82516C22.0318 6.80693 22.0715 6.78908 22.1116 6.77275C22.1666 6.75034 22.223 6.73079 22.2796 6.71123C22.3201 6.69718 22.3603 6.68274 22.4019 6.67059C22.4615 6.65293 22.5223 6.6385 22.5829 6.62407C22.6231 6.61457 22.6622 6.60394 22.7029 6.59596C22.771 6.58248 22.8405 6.57318 22.9104 6.56425C22.945 6.55951 22.9792 6.55305 23.0141 6.54982C23.1187 6.53957 23.2254 6.53349 23.3333 6.53349C23.4412 6.53349 23.5481 6.53957 23.6531 6.54982C23.688 6.55305 23.722 6.55951 23.7566 6.56425C23.8266 6.57299 23.8967 6.58248 23.9643 6.59596C24.0049 6.60394 24.0441 6.61457 24.0843 6.62407C24.1449 6.6385 24.2056 6.65293 24.2653 6.67059C24.3069 6.68274 24.3469 6.69718 24.3876 6.71123C24.4441 6.73079 24.5005 6.75034 24.5556 6.77275C24.5957 6.78908 24.6354 6.80693 24.6751 6.82516C24.7282 6.8489 24.7804 6.87168 24.8323 6.90074C24.871 6.92124 24.9094 6.94175 24.9472 6.96378C24.9975 6.99226 25.0465 7.02245 25.0951 7.05379C25.1319 7.07714 25.1678 7.1005 25.2033 7.12556C25.25 7.15917 25.2966 7.1943 25.3433 7.23019C25.3769 7.2564 25.4105 7.28203 25.4428 7.30957C25.4893 7.3483 25.5318 7.38932 25.5753 7.43033C25.6051 7.45787 25.6349 7.48502 25.6634 7.51389C25.7101 7.5606 25.7502 7.60731 25.7927 7.65383C25.8165 7.68137 25.8394 7.70757 25.8641 7.73549C25.9135 7.79625 25.9598 7.85929 26.0041 7.92234C26.0166 7.94094 26.0312 7.95765 26.0438 7.97645C26.0998 8.05943 26.1518 8.14526 26.2 8.23356C26.2141 8.25863 26.2253 8.2854 26.2384 8.31104C26.2716 8.37541 26.3043 8.44035 26.3316 8.507C26.3466 8.54251 26.3592 8.57897 26.3738 8.61524C26.3966 8.6741 26.4203 8.73297 26.4391 8.79354C26.4522 8.8338 26.4629 8.8752 26.4741 8.9164C26.4904 8.9747 26.5063 9.03242 26.5208 9.09186C26.5306 9.13553 26.538 9.17959 26.546 9.22421C26.5525 9.25972 26.5614 9.29428 26.5665 9.33017H27.0667V6.44861C27.0676 5.9549 26.6843 5.54607 26.1917 5.51512L21 5.19269V7.51768ZM7.4666 0.933302H5.1099C4.74095 0.933302 4.40655 1.15072 4.25673 1.48778L3.05132 4.20014H7.46641V0.933302H7.4666ZM13.0666 0.933302H8.39991V4.20014H13.0666V0.933302ZM13.9999 9.3334H20.0667V5.13344H13.9999V9.3334ZM13.9999 4.20014H19.2733L17.7248 1.41353C17.5603 1.11749 17.2483 0.933682 16.9096 0.933302H13.9999V4.20014ZM9.45872 7.6563C9.48265 7.68365 9.50544 7.70985 9.53012 7.73795C9.57968 7.79853 9.62583 7.86157 9.67026 7.92461C9.68279 7.94322 9.69722 7.96012 9.70976 7.97873C9.76577 8.0619 9.81799 8.14754 9.86622 8.23584C9.88028 8.2611 9.89129 8.28768 9.90439 8.31332C9.93762 8.37769 9.97028 8.44263 9.99782 8.50928C10.0126 8.54479 10.0254 8.58125 10.0398 8.61752C10.0626 8.67638 10.0865 8.73525 10.1051 8.79582C10.1182 8.83608 10.129 8.87747 10.14 8.91868C10.1564 8.97698 10.1723 9.0347 10.1868 9.09414C10.1966 9.13781 10.204 9.18187 10.212 9.22649C10.2185 9.262 10.2274 9.29656 10.2325 9.33245H13.0666V5.13344H8.39991V6.85023C8.43352 6.86618 8.46561 6.88384 8.49884 6.90074C8.53207 6.91745 8.57593 6.94175 8.61372 6.96378C8.66404 6.99226 8.71303 7.02245 8.76164 7.05379C8.79848 7.07714 8.83437 7.1005 8.86988 7.12556C8.91659 7.15917 8.96311 7.1943 9.00983 7.23019C9.04344 7.2564 9.07705 7.28203 9.10933 7.30957C9.15585 7.3483 9.19839 7.38932 9.24187 7.43033C9.27168 7.45787 9.3015 7.48502 9.32998 7.51389C9.37422 7.56003 9.41619 7.60674 9.45872 7.6563ZM6.99986 12.1335C8.28863 12.1335 9.33321 11.0887 9.33321 9.80014C9.33321 8.51137 8.28863 7.46679 6.99986 7.46679C5.71108 7.46679 4.66651 8.51137 4.66651 9.80014C4.66803 11.0882 5.71185 12.132 6.99986 12.1335ZM2.79991 7.46679V9.3334H3.76625C3.77138 9.29751 3.7803 9.26295 3.78676 9.22744C3.79473 9.18092 3.80214 9.13876 3.81201 9.0949C3.82511 9.03565 3.84087 8.97793 3.85872 8.91944C3.86993 8.87842 3.88056 8.83684 3.89366 8.79677C3.91322 8.73601 3.9362 8.67733 3.95898 8.61847C3.97342 8.58201 3.98614 8.54574 4.00095 8.51023C4.03 8.44358 4.06266 8.37864 4.09438 8.31427C4.10748 8.28863 4.11868 8.26205 4.13254 8.23679C4.18077 8.14868 4.23299 8.06304 4.28901 7.97968C4.30154 7.96107 4.31598 7.94417 4.3287 7.92556C4.37522 7.86157 4.42193 7.79853 4.46865 7.7389C4.49143 7.7108 4.51536 7.6846 4.54004 7.65706C4.58258 7.61054 4.62454 7.5606 4.66936 7.51711C4.69784 7.48825 4.72765 7.4611 4.75747 7.43356C4.80095 7.39255 4.84424 7.35153 4.89001 7.31279C4.92229 7.28526 4.9559 7.25962 4.98951 7.23342C5.03603 7.19753 5.08274 7.1624 5.12946 7.12898C5.16497 7.10411 5.20086 7.08227 5.23769 7.05701C5.28441 7.02587 5.3353 6.99549 5.38562 6.96701C5.4234 6.94498 5.46176 6.92447 5.5005 6.90396C5.55234 6.87738 5.60456 6.85212 5.65773 6.82839C5.69741 6.81016 5.7371 6.7925 5.77717 6.77617C5.83223 6.75376 5.88863 6.73401 5.94522 6.71446C5.98566 6.70059 6.02592 6.68597 6.0675 6.67382C6.12713 6.65616 6.18789 6.64173 6.24847 6.6273C6.28872 6.61799 6.32784 6.60717 6.36848 6.59919C6.43665 6.58571 6.50615 6.57641 6.57622 6.56748C6.61059 6.56273 6.64477 6.55628 6.67971 6.55305C6.78509 6.53957 6.892 6.53349 6.99986 6.53349C7.10772 6.53349 7.21462 6.53957 7.31963 6.54982C7.35457 6.55305 7.38856 6.55951 7.42312 6.56425L7.4666 6.57033V5.13344H2.79991V7.46679ZM0.933113 7.00005H1.86641V2.33335H0.933113V7.00005Z" fill="white"/>
<path d="M16.8003 6.06677H14.9335V7.00007H16.8003V6.06677Z" fill="white"/>
<path d="M23.3334 8.40015C24.1066 8.40015 24.7334 9.02697 24.7334 9.80019C24.7334 10.5734 24.1066 11.2002 23.3334 11.2002C22.5601 11.2002 21.9333 10.5734 21.9333 9.80019C21.9333 9.02697 22.5601 8.40015 23.3334 8.40015ZM23.3334 10.2667C23.591 10.2667 23.8001 10.0579 23.8001 9.80019C23.8001 9.54252 23.591 9.33345 23.3334 9.33345C23.0757 9.33345 22.8668 9.54252 22.8668 9.80019C22.8666 10.0579 23.0757 10.2667 23.3334 10.2667Z" fill="white"/>
<path d="M6.99985 8.40015C7.77308 8.40015 8.3999 9.02697 8.3999 9.80019C8.3999 10.5734 7.77308 11.2002 6.99985 11.2002C6.22663 11.2002 5.59981 10.5734 5.59981 9.80019C5.59981 9.02697 6.22663 8.40015 6.99985 8.40015ZM6.99985 10.2667C7.25753 10.2667 7.4666 10.0579 7.4666 9.80019C7.4666 9.54252 7.25753 9.33345 6.99985 9.33345C6.74218 9.33345 6.53311 9.54252 6.53311 9.80019C6.53311 10.0579 6.74218 10.2667 6.99985 10.2667Z" fill="white"/>
</svg>
