<svg width="28" height="12" viewBox="0 0 28 12" fill="none" xmlns="http://www.w3.org/2000/svg">
<path d="M16.3333 4.19983H14.4667V5.13331H16.3333V4.19983Z" fill="white"/>
<path d="M0.40048 2.80464L3.57046 2.35195C4.14847 1.99686 4.74833 1.67899 5.36679 1.40005C7.40921 0.474917 9.62596 -0.00245904 11.8683 9.52524e-06H12.419C15.0653 0.00190837 17.6692 0.665944 19.9934 1.93154L21.5932 2.80426C23.4659 2.82534 25.3025 3.32341 26.9294 4.25082C27.5906 4.63003 27.9989 5.33356 28 6.09558V8.8666C28 9.12446 27.7911 9.33334 27.5333 9.33334H25.9663C25.4567 10.7873 23.8648 11.5529 22.4109 11.0433C21.6105 10.7628 20.9814 10.1335 20.7009 9.33334H8.23294C7.72329 10.7873 6.13146 11.5529 4.6775 11.0433C3.87731 10.7628 3.24803 10.1335 2.96756 9.33334H2.80008C2.74065 9.33334 2.68178 9.32214 2.62653 9.30011L1.11502 8.69361C0.439787 8.42625 -0.00246048 7.77266 7.62939e-06 7.04672V3.26664C7.62939e-06 3.0346 0.170717 2.83768 0.40048 2.80464ZM21.5045 8.77336C21.7109 9.78337 22.697 10.4349 23.707 10.2285C24.7172 10.0221 25.3687 9.03598 25.1623 8.02578C24.9557 7.01577 23.9696 6.36427 22.9596 6.57067C22.0905 6.74822 21.4666 7.51289 21.4667 8.40005C21.4667 8.52537 21.4795 8.65051 21.5045 8.77336ZM13.0667 8.40005H20.5334C20.5334 6.8536 21.7869 5.59997 23.3333 5.59997C24.8798 5.59997 26.1334 6.8536 26.1334 8.40005H27.0667V6.09558C27.0661 5.66814 26.8371 5.27336 26.4661 5.06107C24.9432 4.19158 23.2202 3.73395 21.4667 3.73338H13.0667V8.40005ZM13.0667 2.80008H19.6364L19.5464 2.7509C17.5513 1.66665 15.3351 1.05198 13.0667 0.953812V2.80008ZM12.1334 0.933305H11.8693C9.98864 0.931216 8.12509 1.2882 6.37831 1.98528L7.19312 2.80008H12.1334V0.933305ZM3.77117 8.77336C3.97757 9.78337 4.96366 10.4349 5.97386 10.2285C6.98387 10.0221 7.63537 9.03598 7.42896 8.02578C7.22255 7.01577 6.23628 6.36427 5.22627 6.57067C4.35716 6.74822 3.73319 7.51289 3.73338 8.40005C3.73338 8.52537 3.7461 8.65051 3.77117 8.77336ZM0.933304 4.19993H2.33334V5.13342H0.933304V7.04672C0.932163 7.39061 1.1418 7.70012 1.46157 7.8264L2.80008 8.36397C2.80008 8.32105 2.80559 8.27852 2.80844 8.2356C2.81129 8.19269 2.81224 8.14237 2.81679 8.09566C2.82154 8.04894 2.83084 8.00223 2.83825 7.95571C2.84585 7.909 2.85135 7.86229 2.86066 7.81994C2.86996 7.77741 2.88363 7.73031 2.89579 7.68588C2.90794 7.64164 2.91724 7.59682 2.9313 7.55334C2.94516 7.51004 2.96206 7.46846 2.97782 7.42592C2.99377 7.38358 3.0082 7.33972 3.02453 7.29756C3.04086 7.2556 3.06289 7.21743 3.08245 7.17774C3.102 7.13806 3.12118 7.09457 3.14302 7.05451C3.16505 7.01444 3.18973 6.98026 3.21081 6.94304C3.2317 6.90563 3.25733 6.8631 3.28392 6.82493C3.31069 6.78657 3.33537 6.75638 3.36101 6.72182C3.38664 6.68726 3.4157 6.64663 3.44551 6.61074C3.47532 6.57485 3.50323 6.54675 3.53229 6.51731C3.56115 6.48807 3.59343 6.44839 3.62552 6.41573C3.6578 6.38306 3.68951 6.35724 3.72161 6.32838C3.75389 6.29951 3.78845 6.26533 3.82395 6.23495C3.85927 6.20476 3.89535 6.1814 3.93067 6.15482C3.96618 6.12824 4.00169 6.09975 4.03891 6.07488C4.07631 6.05019 4.11828 6.02836 4.15835 6.00215C4.1986 5.97595 4.23126 5.95544 4.26905 5.9355C4.30684 5.91537 4.35393 5.8943 4.39684 5.87379C4.43976 5.85328 4.47337 5.83505 4.51305 5.81834C4.55274 5.80144 4.60648 5.78378 4.653 5.76707C4.69971 5.75017 4.73009 5.73707 4.76978 5.72454C4.82295 5.70821 4.87745 5.69643 4.93176 5.68295C4.96726 5.6746 5.00126 5.66339 5.03714 5.65599C5.09449 5.64421 5.15335 5.63776 5.21165 5.62921C5.24621 5.62466 5.27925 5.61706 5.31381 5.61383C5.40723 5.60453 5.50047 5.5994 5.59845 5.5994C7.14432 5.60092 8.39701 6.8536 8.39853 8.39948H12.1332V3.73319H7.00001C6.8762 3.73319 6.75752 3.68401 6.67017 3.59647L5.46002 2.38632C4.95207 2.62805 4.45818 2.89826 3.98061 3.19562C3.92554 3.22999 3.86402 3.25259 3.79965 3.26189L0.933304 3.6711V4.19993Z" fill="white"/>
</svg>
