<svg width="28" height="16" viewBox="0 0 28 16" fill="none" xmlns="http://www.w3.org/2000/svg">
<path d="M27.8171 7.36733C27.7135 7.16581 27.4663 7.08624 27.2648 7.18993C27.0633 7.29345 26.9839 7.54064 27.0874 7.74216C27.1735 7.90989 27.1998 8.09725 27.1634 8.28368L26.4032 12.1653C26.3703 12.3349 26.2205 12.458 26.0473 12.458H25.7692C25.7613 11.8747 25.6099 11.3255 25.3475 10.8448L25.6482 9.30906C25.6891 9.09972 25.6889 8.88819 25.6506 8.68454H26.0031C26.2552 8.68454 26.4603 8.47946 26.4603 8.22735V5.97647C26.4603 5.72469 26.2552 5.51983 26.0031 5.51983H25.2161C24.3438 5.51983 23.634 6.22956 23.634 7.10194C23.634 7.12698 23.6357 7.15176 23.6368 7.17664L20.2921 6.07365C20.1122 6.01431 19.9297 5.99238 19.7526 6.00332L18.4229 4.42236C17.4001 3.20655 16.1671 2.21813 14.758 1.48445C13.3486 0.750599 11.8316 0.307358 10.2493 0.16703L8.58772 0.0188271C7.70605 -0.0593759 6.82602 0.107803 6.04252 0.487607C6.02628 0.494279 6.01069 0.502045 5.9956 0.510686C5.59107 0.712209 5.21297 0.970551 4.87483 1.28178L2.73016 3.25752C2.15277 3.78887 1.98335 4.62591 2.31032 5.3439L3.37788 7.63044C2.5708 7.7082 1.78029 7.94467 1.06318 8.32628L0.797178 8.46775C0.305374 8.72861 0 9.23666 0 9.79365C0 10.1979 0.16625 10.5909 0.455601 10.8713L0.938928 11.3414C0.809155 11.7056 0.737842 12.0974 0.737842 12.5056C0.737842 14.4232 2.29796 15.9833 4.21558 15.9833C5.54027 15.9833 6.69401 15.2387 7.28108 14.1462H19.2256C19.3074 14.2985 19.4007 14.4458 19.506 14.5867C19.6417 14.768 19.8987 14.8051 20.0801 14.6695C20.2615 14.5338 20.2985 14.2768 20.1629 14.0954C20.0424 13.9343 19.9422 13.7623 19.8623 13.5824C19.8594 13.5754 19.8563 13.5686 19.8531 13.5618C19.7097 13.2316 19.6352 12.8746 19.6352 12.5057C19.6352 11.0404 20.8273 9.84823 22.2927 9.84823C23.758 9.84823 24.9501 11.0404 24.9501 12.5057C24.9501 13.971 23.758 15.1631 22.2927 15.1631C22.0229 15.1631 21.757 15.123 21.5023 15.0437C21.286 14.9766 21.0561 15.0973 20.9888 15.3136C20.9215 15.5299 21.0423 15.7598 21.2587 15.8271C21.5924 15.9308 21.9403 15.9834 22.2927 15.9834C23.9447 15.9834 25.3304 14.8252 25.6829 13.2784H26.0474C26.6124 13.2784 27.1007 12.8763 27.2085 12.3226L27.9687 8.44123C28.0406 8.07176 27.9882 7.70049 27.8171 7.36733ZM25.2161 6.34014H25.6399V7.86428H25.2359C25.0385 7.65154 24.7918 7.49727 24.5203 7.41201C24.4772 7.31533 24.4543 7.21033 24.4543 7.10199C24.4543 6.68188 24.796 6.34014 25.2161 6.34014ZM21.6379 7.38128C20.596 7.50947 19.6351 7.90272 18.8245 8.49111L19.2782 7.22269C19.3469 7.03057 19.4991 6.89101 19.6812 6.8443C19.687 6.84283 19.6928 6.84146 19.6985 6.83987C19.8056 6.81308 19.9215 6.81521 20.0351 6.85267L21.6379 7.38128ZM8.51493 0.835966L10.1766 0.984169C11.6515 1.11493 13.0655 1.52803 14.3792 2.21206C15.6925 2.89588 16.8418 3.81719 17.7951 4.95048L18.9464 6.3193C18.7523 6.47812 18.5973 6.69091 18.5059 6.94635L17.9179 8.59003L15.1813 6.93815L15.4596 6.47708C15.5767 6.2831 15.5143 6.03105 15.3204 5.91396C15.1265 5.79688 14.8743 5.85922 14.7573 6.05314L13.7643 7.69841C13.6472 7.89239 13.7095 8.14444 13.9034 8.26153C13.9697 8.3015 14.0428 8.32059 14.115 8.32059C14.2539 8.32059 14.3895 8.24999 14.4665 8.12235L14.7574 7.64044L17.6361 9.37813L17.4684 9.84697C17.0876 10.371 16.7884 10.9579 16.5898 11.5891H16.315V11.0144C16.315 10.3172 15.7478 9.75006 15.0507 9.75006H13.3911L11.6562 7.7379C11.6407 7.7199 11.6322 7.69693 11.6322 7.67315V5.70189C11.6322 4.9635 11.0315 4.36281 10.2931 4.36281H9.81759C9.41821 4.36281 9.09336 4.68771 9.09336 5.08709V5.49817H6.60842V1.13275C7.20534 0.883763 7.85951 0.777669 8.51493 0.835966ZM9.36675 13.3259V12.4093H16.394C16.3444 12.7081 16.3166 13.0141 16.3125 13.3258H9.36675V13.3259ZM12.3826 11.5611L10.0013 8.1305C9.94392 8.04786 9.91362 7.95101 9.91362 7.85039V5.1829H10.2931C10.5791 5.1829 10.8119 5.41565 10.8119 5.70167V7.67293C10.8119 7.89326 10.8911 8.1066 11.035 8.27334L12.8926 10.4278C12.9705 10.5181 13.0838 10.5702 13.2032 10.5702H15.0507C15.2955 10.5702 15.4947 10.7694 15.4947 11.0142V11.5889H12.4356C12.4145 11.5888 12.3947 11.5784 12.3826 11.5611ZM3.28567 3.861L5.43035 1.88525C5.54426 1.78042 5.66403 1.68351 5.78806 1.59328V5.49796H3.28742L3.05511 5.00036C2.87716 4.60961 2.96974 4.15177 3.28567 3.861ZM1.02703 10.2828C0.89567 10.1555 0.820311 9.97718 0.820311 9.79365C0.820311 9.54099 0.958725 9.3106 1.18185 9.1922L1.44829 9.0505C3.04111 8.20296 4.38478 8.47191 5.0279 8.42209C5.28439 8.42209 5.54158 8.45042 5.79232 8.50631C6.01326 8.55564 6.23261 8.41629 6.28189 8.19525C6.33116 7.97414 6.19187 7.75496 5.97077 7.70568C5.2915 7.55426 4.84826 7.61633 4.26972 7.60183L3.67045 6.31838H9.09331V7.8505C9.09331 8.11907 9.17425 8.37774 9.32743 8.59835L11.4035 11.5891H9.3522C9.28499 10.7764 8.98694 9.98653 8.49612 9.33367C8.30351 9.07703 8.08198 8.84192 7.8378 8.63488C7.66493 8.48826 7.40615 8.5097 7.2597 8.68251C7.11319 8.85527 7.13452 9.1141 7.30733 9.26056C7.50491 9.42801 7.68412 9.61832 7.84026 9.82635C8.29569 10.4321 8.54649 11.183 8.54649 11.9407V13.3232H7.59542C7.65891 13.0608 7.69342 12.7872 7.69342 12.5057C7.69342 10.588 6.1333 9.02786 4.21563 9.02786C3.01251 9.02786 1.95037 9.64211 1.32568 10.5733L1.02703 10.2828ZM4.21558 15.163C2.75023 15.163 1.55815 13.9708 1.55815 12.5055C1.55815 11.0402 2.75028 9.84806 4.21558 9.84806C5.68093 9.84806 6.87306 11.0402 6.87306 12.5055C6.87306 13.9708 5.68093 15.163 4.21558 15.163ZM22.2925 9.02775C20.3749 9.02775 18.8148 10.5879 18.8148 12.5055C18.8148 12.7854 18.8476 13.0601 18.9117 13.3259H17.1327C17.1767 10.4675 19.5151 8.15576 22.3838 8.15576H24.0233C24.2737 8.15576 24.5086 8.26672 24.6679 8.46015C24.8273 8.65374 24.8911 8.90575 24.843 9.15151L24.6806 9.98084C24.0572 9.39077 23.2168 9.02775 22.2925 9.02775Z" fill="white"/>
<path d="M4.21547 10.8708C3.31411 10.8708 2.58081 11.6042 2.58081 12.5055C2.58081 13.4068 3.31411 14.1401 4.21547 14.1401C5.11683 14.1401 5.85013 13.4068 5.85013 12.5055C5.85008 11.6042 5.11677 10.8708 4.21547 10.8708ZM4.21547 13.3198C3.76643 13.3198 3.40112 12.9545 3.40112 12.5055C3.40112 12.0565 3.76643 11.6912 4.21547 11.6912C4.66451 11.6912 5.02982 12.0565 5.02982 12.5055C5.02982 12.9545 4.66445 13.3198 4.21547 13.3198Z" fill="white"/>
<path d="M22.2926 14.1401C23.1939 14.1401 23.9272 13.4068 23.9272 12.5055C23.9272 11.6042 23.1939 10.8708 22.2926 10.8708C21.3912 10.8708 20.658 11.6042 20.658 12.5055C20.658 13.4068 21.3913 14.1401 22.2926 14.1401ZM22.2926 11.6911C22.7416 11.6911 23.1069 12.0565 23.1069 12.5055C23.1069 12.9544 22.7416 13.3198 22.2926 13.3198C21.8435 13.3198 21.4783 12.9544 21.4783 12.5055C21.4783 12.0565 21.8436 11.6911 22.2926 11.6911Z" fill="white"/>
</svg>
